<svg width="40" height="21" viewBox="0 0 40 21" fill="none" xmlns="http://www.w3.org/2000/svg">
<rect y="0.5" width="40" height="20" rx="10" fill="#4F4F4F"/>
<g clip-path="url(#clip0_544_3125)">
<path d="M34.3384 7.91978C34.0044 6.6801 32.9444 5.79243 31.6944 5.6909C25.144 5.1605 18.6597 5.27161 13.3226 6.09295C10.2032 6.57474 7.47721 7.29743 5.35596 8.27706C8.04227 17.5508 21.7184 19.8635 23.6313 11.3503C23.6432 11.2962 23.6577 11.242 23.6749 11.1891C23.7224 11.043 23.7885 10.9037 23.881 10.7818C24.0527 10.5598 24.2718 10.4123 24.5107 10.3366H24.5121C25.2012 10.1161 26.0317 10.4937 26.1912 11.4178C26.7378 14.9769 28.9502 16.7144 32.1831 16.5669C32.7771 16.5398 33.3104 16.1881 33.5783 15.644C33.6655 15.4654 33.7486 15.2774 33.8264 15.0825C34.6568 12.9903 34.9023 10.0079 34.3387 7.91978H34.3384ZM20.6992 8.17553C21.1031 8.23228 21.4068 8.58021 21.4292 8.99687C21.6696 13.5059 16.9225 15.4465 13.4784 13.1649C12.8421 12.7439 12.3616 12.112 12.0963 11.3855C12.0145 11.1623 11.947 10.9403 11.8942 10.7183C11.691 9.85892 12.149 8.97675 12.9608 8.67911C14.8564 7.98635 17.6287 7.74258 20.6992 8.17576V8.17553ZM27.9702 9.10103C28.0151 8.68701 28.3174 8.35129 28.7147 8.26197C30.2538 7.91691 31.7112 7.90206 32.8161 8.62738C33.3599 8.98466 33.6701 9.61802 33.6701 10.2796C33.6662 12.9834 32.6907 14.6708 30.7647 14.0985C30.209 13.9336 29.7219 13.5923 29.3232 13.1635C28.209 11.9618 27.8182 10.4583 27.97 9.10103H27.9702Z" fill="#F2C94C"/>
<g opacity="0.6">
<path d="M11.3824 11.442C11.4352 11.664 11.5025 11.8859 11.5845 12.1091C11.8498 12.8359 12.3303 13.4678 12.9666 13.8885C15.581 15.6203 18.9438 14.9177 20.3084 12.5076C18.7335 14.3174 15.8087 14.7087 13.4784 13.1649C12.8421 12.7439 12.3616 12.112 12.0963 11.3855C12.0145 11.1623 11.947 10.9403 11.8942 10.7183C11.8103 10.3637 11.8405 10.006 11.9603 9.68604C11.466 10.0967 11.2247 10.7756 11.3824 11.442Z" fill="white"/>
<path d="M23.3689 11.5057C23.2764 11.6276 23.2105 11.767 23.1629 11.913C23.1456 11.9657 23.1311 12.0198 23.1192 12.074C22.9396 12.8735 22.656 13.5775 22.2876 14.1893C22.9085 13.4293 23.3754 12.4873 23.631 11.3503C23.6403 11.3079 23.6525 11.266 23.6651 11.2241C23.5565 11.2991 23.4563 11.3922 23.3687 11.5055L23.3689 11.5057Z" fill="white"/>
<path d="M34.3384 7.91978C34.0044 6.6801 32.9444 5.79243 31.6944 5.6909C25.144 5.1605 18.6597 5.27161 13.3226 6.09295C10.2032 6.57474 7.47721 7.29743 5.35596 8.27706C5.39894 8.42576 5.44519 8.57279 5.49378 8.7179C7.51108 7.88099 10.0005 7.25074 12.8108 6.8166C18.1479 5.99525 24.6322 5.88414 31.1824 6.41478C32.4326 6.51632 33.4926 7.40399 33.8264 8.64367C34.3901 10.7317 34.1445 13.7142 33.3141 15.8064C33.2618 15.9373 33.2064 16.0635 33.1497 16.1876C33.3249 16.041 33.4723 15.8583 33.5776 15.6442C33.6648 15.4656 33.7479 15.2776 33.8257 15.0827C34.6561 12.9906 34.9016 10.0081 34.338 7.92002L34.3384 7.91978Z" fill="white"/>
<path d="M27.976 9.07178C27.6953 9.21713 27.4944 9.4949 27.4586 9.82511C27.3068 11.1824 27.6976 12.6859 28.8118 13.8875C29.2106 14.3164 29.6976 14.6576 30.2533 14.8226C31.3851 15.1591 32.1882 14.7144 32.6593 13.7422C32.19 14.1864 31.5584 14.3346 30.7651 14.099C30.2094 13.934 29.7224 13.5928 29.3236 13.1639C28.2094 11.9623 27.8186 10.4587 27.9704 9.10147C27.9716 9.09141 27.9746 9.08183 27.976 9.07178Z" fill="white"/>
</g>
<path d="M16.5638 17C12.1174 17 6.65274 14.0348 5.01526 8.38067C4.96457 8.20563 5.04796 8.01909 5.21007 7.94414C10.7046 5.40684 20.6157 4.42865 31.7225 5.3271C33.1204 5.44012 34.3098 6.44273 34.6817 7.82202C35.3154 10.1718 34.9776 13.6049 33.8957 15.8077C33.5712 16.4679 32.9213 16.8985 32.1991 16.9313C28.7146 17.0903 26.3969 15.1006 25.84 11.474C25.7685 11.0614 25.5134 10.7657 25.1413 10.6699C24.7762 10.5763 24.3913 10.7085 24.1605 11.008C24.0789 11.1139 24.0177 11.2568 23.9783 11.4323C23.2219 14.7977 20.5671 16.8772 16.8768 16.9947C16.7733 16.9981 16.6685 16.9998 16.5638 16.9998V17ZM5.79102 8.47957C7.47475 13.7151 12.7014 16.398 16.8546 16.2658C20.2515 16.1576 22.5954 14.3363 23.2845 11.2688C23.3478 10.9874 23.4546 10.7477 23.6015 10.5564C24.0054 10.0315 24.6774 9.79827 25.3146 9.9623C25.9612 10.1287 26.4198 10.6488 26.5417 11.3536C27.0439 14.6248 29.0407 16.3436 32.1673 16.2021C32.6324 16.181 33.051 15.904 33.2596 15.4794C34.2544 13.4538 34.5777 10.1757 33.9952 8.01646C33.7027 6.93195 32.7667 6.14341 31.666 6.05457C20.8668 5.18103 11.2375 6.08714 5.79102 8.47957Z" fill="#212020"/>
<path d="M31.4707 14.5119C31.2198 14.5119 30.9559 14.4714 30.6818 14.39C30.1131 14.2209 29.569 13.8691 29.1084 13.3725C28.0231 12.2028 27.5008 10.6331 27.6751 9.06632C27.7353 8.52538 28.1275 8.0831 28.651 7.96553C30.5099 7.54815 31.925 7.68105 32.9767 8.37189C33.5973 8.77969 33.9673 9.49328 33.9664 10.2806C33.9643 12.1458 33.5249 13.4688 32.6956 14.1065C32.3455 14.3758 31.9304 14.5119 31.4707 14.5119ZM28.7778 8.55939C28.5022 8.62141 28.2959 8.85272 28.2644 9.13505C28.11 10.5225 28.5741 11.9142 29.5382 12.9532C29.9266 13.3718 30.3793 13.6666 30.8472 13.8057C31.4462 13.9838 31.9479 13.9211 32.3399 13.6199C33.0045 13.1086 33.3717 11.9223 33.3735 10.2797C33.3742 9.70951 33.0995 9.17456 32.6569 8.88362C31.7445 8.28425 30.4758 8.17793 28.7781 8.55915L28.7778 8.55939Z" fill="#212020"/>
<path d="M16.618 14.4269C15.4834 14.4269 14.3264 14.0888 13.3166 13.42C12.6413 12.9727 12.109 12.2878 11.8179 11.4918C11.7326 11.2586 11.6616 11.0227 11.6063 10.7905C11.3647 9.77396 11.9043 8.74357 12.8614 8.39324C14.9051 7.64541 17.7764 7.456 20.7399 7.8741C21.2807 7.95048 21.6951 8.41551 21.725 8.98016C21.8336 11.0132 20.97 12.7303 19.3554 13.691C18.5283 14.1834 17.5811 14.4271 16.618 14.4271V14.4269ZM13.0608 8.96579C12.3909 9.211 12.0134 9.93344 12.1828 10.6463C12.2323 10.8551 12.2965 11.0678 12.3734 11.2782C12.6201 11.953 13.0693 12.5323 13.6385 12.909C15.3201 14.0227 17.4475 14.1233 19.0576 13.1647C20.4725 12.3228 21.2286 10.8096 21.1329 9.01296C21.1181 8.73854 20.9189 8.51273 20.6589 8.4761C17.7876 8.07093 15.0179 8.24933 13.0608 8.96555V8.96579Z" fill="#212020"/>
<g opacity="0.3">
<path d="M23.6747 11.1892C23.6577 11.2419 23.6429 11.296 23.631 11.3503C21.7184 19.8633 8.04227 17.5506 5.35596 8.27688C7.47744 7.29725 10.2032 6.57456 13.3226 6.09277C13.1577 6.24172 12.9926 6.39042 12.8276 6.53793L13.0309 6.56762C12.1661 7.03457 11.2369 7.57311 10.8699 8.50149C10.5464 9.31757 10.7405 10.2486 11.0192 11.0836C11.3836 12.1796 11.9169 13.2662 12.8106 13.9741C14.1147 15.0066 15.9075 15.0378 17.5511 14.9173C18.3591 14.8565 19.1762 14.7684 19.9337 14.4722C21.6128 13.8172 22.7784 12.2366 23.6114 10.6047C23.6352 10.7981 23.6577 10.9931 23.6747 11.1892Z" fill="#212020"/>
</g>
<g opacity="0.3">
<path d="M33.826 15.0826C33.7482 15.2775 33.665 15.4655 33.5779 15.6441C33.31 16.1882 32.7767 16.5399 32.1826 16.567C28.9497 16.7145 26.7374 14.977 26.1908 11.4179C26.031 10.4936 25.2008 10.1162 24.5117 10.3368H24.5103C24.3874 10.3394 24.2662 10.3653 24.1473 10.422C24.1936 10.2949 24.2398 10.1677 24.2858 10.0391L23.9492 10.4505C24.2041 9.72662 25.1637 9.47758 25.8502 9.79007C26.5367 10.104 26.9749 10.8063 27.2599 11.5194C27.5451 12.2314 27.718 12.9931 28.0836 13.6657C28.8348 15.0529 30.4214 15.9135 31.9619 15.7727C32.6286 15.7119 33.27 15.4643 33.8257 15.0826H33.826Z" fill="#212020"/>
</g>
</g>
<defs>
<clipPath id="clip0_544_3125">
<rect width="30" height="12" fill="white" transform="translate(5 5)"/>
</clipPath>
</defs>
</svg>
