<svg width="174" height="68" viewBox="0 0 174 68" fill="none" xmlns="http://www.w3.org/2000/svg">
<g clip-path="url(#clip0_544_4036)">
<path d="M170.163 16.5451C168.225 9.52027 162.077 4.49012 154.827 3.91478C116.835 0.90917 79.2263 1.53879 48.2711 6.19307C30.1786 8.92322 14.3677 13.0184 2.06445 18.5697C17.645 71.121 96.9665 84.2262 108.061 35.9845C108.13 35.6779 108.214 35.3712 108.315 35.0713C108.59 34.2436 108.973 33.4539 109.51 32.7632C110.505 31.5053 111.776 30.6694 113.162 30.2406H113.17C117.167 28.9909 121.984 31.1308 122.909 36.3672C126.079 56.5353 138.911 66.3812 157.662 65.5453C161.107 65.392 164.2 63.3987 165.754 60.3157C166.26 59.3034 166.742 58.2382 167.193 57.1337C172.009 45.2782 173.433 28.3776 170.164 16.5451H170.163ZM91.0554 17.9943C93.3979 18.3159 95.1592 20.2875 95.2892 22.6486C96.6834 48.1997 69.1504 59.1962 49.1747 46.2674C45.4842 43.8819 42.6973 40.3009 41.1582 36.184C40.684 34.9193 40.2925 33.6615 39.9863 32.4036C38.8076 27.5336 41.4644 22.5346 46.1724 20.8479C57.1669 16.9223 73.2461 15.541 91.0554 17.9957V17.9943ZM133.227 23.2389C133.487 20.8927 135.241 18.9903 137.545 18.4842C146.472 16.5288 154.925 16.4447 161.333 20.5548C164.487 22.5794 166.287 26.1685 166.287 29.9177C166.264 45.2388 160.606 54.8011 149.435 51.5581C146.212 50.6231 143.387 48.6895 141.075 46.2592C134.612 39.4501 132.345 30.93 133.226 23.2389H133.227Z" fill="#7446AC"/>
<g opacity="0.6">
<path d="M37.0182 36.5041C37.3244 37.762 37.7146 39.0199 38.1901 40.2845C39.7292 44.4028 42.5161 47.9838 46.2067 50.3679C61.37 60.1812 80.8742 56.2 88.7891 42.5425C79.6548 52.7982 62.691 55.0154 49.1751 46.2672C45.4846 43.8817 42.6977 40.3008 41.1586 36.1839C40.6844 34.9192 40.2928 33.6613 39.9867 32.4035C39.5003 30.3938 39.675 28.3666 40.3701 26.5537C37.5032 28.8809 36.1037 32.7278 37.0182 36.5041Z" fill="white"/>
<path d="M106.54 36.8653C106.004 37.556 105.622 38.3457 105.345 39.1734C105.245 39.472 105.161 39.7786 105.092 40.0853C104.05 44.6161 102.405 48.6055 100.269 52.0724C103.87 47.7655 106.578 42.4274 108.06 35.9846C108.114 35.7445 108.185 35.507 108.258 35.2695C107.628 35.6943 107.047 36.2221 106.539 36.8639L106.54 36.8653Z" fill="white"/>
<path d="M170.163 16.5451C168.225 9.52027 162.077 4.49012 154.827 3.91478C116.835 0.90917 79.2263 1.53879 48.2711 6.19307C30.1786 8.92322 14.3677 13.0184 2.06445 18.5697C2.31374 19.4123 2.582 20.2455 2.86381 21.0678C14.5642 16.3253 29.0026 12.7538 45.3026 10.2937C76.2579 5.63944 113.867 5.00982 151.858 8.01679C159.109 8.59213 165.257 13.6223 167.193 20.6471C170.462 32.4796 169.038 49.3802 164.222 61.2357C163.918 61.978 163.597 62.6931 163.268 63.3959C164.284 62.5655 165.139 61.5302 165.75 60.3171C166.255 59.3048 166.738 58.2396 167.189 57.1351C172.005 45.2795 173.429 28.3789 170.16 16.5465L170.163 16.5451Z" fill="white"/>
<path d="M133.26 23.0718C131.632 23.8954 130.466 25.4695 130.259 27.3407C129.379 35.0318 131.645 43.552 138.108 50.3611C140.42 52.7913 143.245 54.725 146.468 55.6599C153.033 57.5664 157.691 55.0466 160.423 49.5374C157.701 52.0545 154.038 52.8945 149.437 51.5592C146.214 50.6243 143.389 48.6907 141.076 46.2604C134.614 39.4513 132.347 30.9311 133.228 23.24C133.234 23.183 133.252 23.1288 133.26 23.0718Z" fill="white"/>
</g>
<path d="M67.0683 68C41.279 68 9.58403 51.1971 0.0866425 19.1572C-0.207356 18.1652 0.276319 17.1082 1.21657 16.6835C33.085 2.3054 90.5692 -3.23767 154.989 1.85354C163.096 2.49402 169.995 8.1755 172.152 15.9914C175.828 29.307 173.869 48.7614 167.593 61.2438C165.711 64.9849 161.942 67.4246 157.753 67.6105C137.543 68.5115 124.1 57.2368 120.87 36.686C120.456 34.348 118.976 32.6722 116.818 32.1294C114.7 31.5989 112.467 32.3479 111.129 34.0454C110.656 34.6452 110.301 35.4553 110.072 36.4499C105.685 55.5203 90.2874 67.3039 68.8838 67.9701C68.2836 67.9891 67.6753 67.9986 67.0683 67.9986V68ZM4.58605 19.7176C14.3517 49.3856 44.6661 64.5886 68.7551 63.8396C88.4571 63.2263 102.051 52.9054 106.048 35.5231C106.415 33.9287 107.035 32.5704 107.887 31.4863C110.229 28.5119 114.127 27.1902 117.823 28.1197C121.573 29.0628 124.233 32.01 124.94 36.0035C127.853 54.5405 139.434 64.2806 157.568 63.4787C160.266 63.3593 162.694 61.7893 163.904 59.3834C169.674 47.9051 171.549 29.3287 168.17 17.0933C166.474 10.9477 161.045 6.47933 154.661 5.97591C92.0257 1.02581 36.1754 6.16045 4.58605 19.7176Z" fill="#212020"/>
<path d="M153.531 53.9013C152.076 53.9013 150.545 53.672 148.956 53.2106C145.657 52.2527 142.501 50.2593 139.83 47.445C133.535 40.8164 130.506 31.9217 131.516 23.0433C131.866 19.978 134.141 17.4717 137.177 16.8055C147.959 14.4403 156.166 15.1934 162.266 19.1082C165.865 21.4191 168.012 25.4627 168.006 29.9243C167.994 40.4935 165.445 47.9905 160.636 51.604C158.605 53.1306 156.197 53.9013 153.531 53.9013ZM137.913 20.1707C136.314 20.5221 135.118 21.8329 134.935 23.4327C134.039 31.2948 136.731 39.1813 142.323 45.069C144.576 47.441 147.201 49.1113 149.915 49.8997C153.389 50.9093 156.299 50.5538 158.572 48.8467C162.427 45.9497 164.557 39.2274 164.568 29.9189C164.572 26.688 162.978 23.6566 160.411 22.008C155.119 18.6116 147.761 18.0091 137.914 20.1693L137.913 20.1707Z" fill="#371A45"/>
<path d="M67.3855 53.4197C60.805 53.4197 54.0945 51.5037 48.2376 47.7138C44.3208 45.179 41.2331 41.2982 39.545 36.7878C39.0505 35.4661 38.6386 34.1295 38.3175 32.8133C36.9166 27.0531 40.0463 21.2142 45.597 19.229C57.4505 14.9913 74.1041 13.918 91.2929 16.2872C94.4293 16.7201 96.8328 19.3552 97.0062 22.5549C97.6362 34.0752 92.6274 43.8058 83.2628 49.2498C78.4653 52.0397 72.9715 53.421 67.3855 53.421V53.4197ZM46.7541 22.4735C42.8684 23.863 40.679 27.9568 41.6612 31.9964C41.9485 33.1797 42.321 34.3846 42.7668 35.5774C44.1975 39.4012 46.8028 42.6836 50.1046 44.8181C59.858 51.1292 72.1965 51.6991 81.5354 46.2673C89.7416 41.4963 94.1272 32.9218 93.5717 22.7408C93.4864 21.1857 92.3307 19.9061 90.8227 19.6985C74.1691 17.4026 58.1049 18.4135 46.7541 22.4721V22.4735Z" fill="#371A45"/>
<g opacity="0.3">
<path d="M108.313 35.0725C108.214 35.371 108.129 35.6777 108.06 35.9857C96.9665 84.226 17.645 71.1208 2.06445 18.5695C14.3691 13.0182 30.1786 8.92302 48.2711 6.19287C47.3146 7.03688 46.3567 7.87954 45.4002 8.71541L46.5789 8.88367C41.5633 11.5297 36.1738 14.5814 34.0453 19.8423C32.1689 24.4667 33.2947 29.7425 34.911 34.4741C37.0246 40.6848 40.1177 46.8425 45.3013 50.8536C52.8653 56.7047 63.2637 56.8811 72.7963 56.1986C77.4827 55.8539 82.2219 55.3546 86.6156 53.676C96.3541 49.9648 103.115 41.0077 107.946 31.7602C108.084 32.8566 108.214 33.9612 108.313 35.0725Z" fill="#371A45"/>
</g>
<g opacity="0.3">
<path d="M167.192 57.1335C166.741 58.2381 166.259 59.3033 165.753 60.3156C164.2 63.3985 161.106 65.3918 157.661 65.5452C138.91 66.3811 126.079 56.5351 122.908 36.367C121.982 31.1293 117.166 28.9908 113.17 30.2405H113.162C112.449 30.2554 111.746 30.402 111.056 30.7236C111.324 30.003 111.593 29.2825 111.86 28.5538L109.907 30.885C111.385 26.783 116.951 25.3718 120.933 27.1426C124.915 28.9215 127.456 32.9014 129.109 36.9424C130.764 40.9765 131.766 45.2929 133.886 49.1046C138.244 56.9653 147.446 61.8421 156.381 61.0442C160.247 60.6996 163.968 59.2965 167.191 57.1335H167.192Z" fill="#371A45"/>
</g>
</g>
<defs>
<clipPath id="clip0_544_4036">
<rect width="174" height="68" fill="white"/>
</clipPath>
</defs>
</svg>
