<svg width="31" height="12" viewBox="0 0 31 12" fill="none" xmlns="http://www.w3.org/2000/svg">
<g clip-path="url(#clip0_559_2426)">
<path d="M30.0049 2.91978C29.6709 1.6801 28.6109 0.792431 27.3609 0.690901C20.8105 0.160499 14.3262 0.271608 8.98912 1.09295C5.86973 1.57474 3.14371 2.29743 1.02246 3.27706C3.70877 12.5508 17.3849 14.8635 19.2978 6.35027C19.3097 6.29615 19.3242 6.24203 19.3415 6.18911C19.3889 6.04304 19.455 5.90368 19.5475 5.7818C19.7192 5.55982 19.9383 5.41231 20.1772 5.33664H20.1786C20.8677 5.1161 21.6982 5.49373 21.8577 6.4178C22.4043 9.97687 24.6167 11.7144 27.8496 11.5669C28.4436 11.5398 28.9769 11.1881 29.2448 10.644C29.332 10.4654 29.4151 10.2774 29.4929 10.0825C30.3233 7.99032 30.5688 5.00786 30.0052 2.91978H30.0049ZM16.3657 3.17553C16.7696 3.23228 17.0733 3.58021 17.0957 3.99687C17.3361 8.50588 12.589 10.4465 9.14493 8.16489C8.50862 7.74392 8.02812 7.11199 7.76276 6.38547C7.681 6.16229 7.6135 5.94032 7.5607 5.71834C7.35748 4.85892 7.81555 3.97675 8.62729 3.67911C10.5229 2.98635 13.2952 2.74258 16.3657 3.17576V3.17553ZM23.6367 4.10103C23.6816 3.68701 23.9839 3.35129 24.3812 3.26197C25.9203 2.91691 27.3777 2.90206 28.4826 3.62738C29.0264 3.98466 29.3366 4.61802 29.3366 5.27965C29.3327 7.98338 28.3572 9.67085 26.4312 9.09854C25.8755 8.93355 25.3885 8.59232 24.9897 8.16345C23.8755 6.96185 23.4847 5.45829 23.6365 4.10103H23.6367Z" fill="#F2C94C"/>
<g opacity="0.6">
<path d="M7.0489 6.44199C7.1017 6.66396 7.16897 6.88594 7.25096 7.10912C7.51632 7.83588 7.99682 8.46781 8.63312 8.88854C11.2475 10.6203 14.6103 9.91773 15.9749 7.50758C14.4 9.31741 11.4752 9.70868 9.14492 8.16489C8.50862 7.74392 8.02812 7.11199 7.76276 6.38547C7.681 6.1623 7.6135 5.94032 7.5607 5.71834C7.47684 5.3637 7.50698 5.00595 7.62681 4.68604C7.13253 5.09671 6.89123 5.77557 7.0489 6.44199Z" fill="white"/>
<path d="M19.0354 6.50572C18.9429 6.62761 18.877 6.76697 18.8294 6.91304C18.8121 6.96572 18.7976 7.01984 18.7857 7.07396C18.6061 7.87351 18.3225 8.57752 17.9541 9.18934C18.575 8.4293 19.0419 7.48727 19.2975 6.35032C19.3068 6.30793 19.319 6.26603 19.3316 6.22412C19.223 6.29907 19.1228 6.39222 19.0352 6.50549L19.0354 6.50572Z" fill="white"/>
<path d="M30.0049 2.91978C29.6709 1.6801 28.6109 0.792431 27.3609 0.690901C20.8105 0.160499 14.3262 0.271608 8.98912 1.09295C5.86973 1.57474 3.14371 2.29743 1.02246 3.27706C1.06544 3.42576 1.11169 3.57279 1.16028 3.7179C3.17758 2.88099 5.66697 2.25074 8.47732 1.8166C13.8144 0.995253 20.2987 0.884144 26.8489 1.41478C28.0991 1.51632 29.1591 2.40399 29.4929 3.64367C30.0566 5.73175 29.8111 8.71421 28.9806 10.8064C28.9283 10.9373 28.8729 11.0635 28.8162 11.1876C28.9914 11.041 29.1388 10.8583 29.2441 10.6442C29.3313 10.4656 29.4144 10.2776 29.4922 10.0827C30.3226 7.99056 30.5681 5.0081 30.0045 2.92002L30.0049 2.91978Z" fill="white"/>
<path d="M23.6425 4.07178C23.3618 4.21713 23.1609 4.4949 23.1251 4.82511C22.9733 6.18237 23.3641 7.68593 24.4783 8.88753C24.8771 9.3164 25.3641 9.65763 25.9198 9.82262C27.0516 10.1591 27.8547 9.71439 28.3258 8.74218C27.8565 9.18638 27.2249 9.3346 26.4316 9.09898C25.8759 8.93399 25.3889 8.59276 24.9901 8.16389C23.8759 6.96229 23.4851 5.45872 23.6369 4.10147C23.6381 4.09141 23.6411 4.08183 23.6425 4.07178Z" fill="white"/>
</g>
<path d="M12.2303 12C7.7839 12 2.31924 9.03478 0.681762 3.38067C0.631073 3.20563 0.714465 3.01909 0.876578 2.94414C6.37113 0.406836 16.2822 -0.571354 27.389 0.327096C28.7869 0.44012 29.9763 1.44273 30.3482 2.82202C30.9819 5.17183 30.6442 8.60495 29.5622 10.8077C29.2377 11.4679 28.5878 11.8985 27.8656 11.9313C24.3811 12.0903 22.0634 10.1006 21.5065 6.474C21.435 6.06142 21.1799 5.76568 20.8078 5.6699C20.4427 5.57627 20.0578 5.70845 19.827 6.00802C19.7454 6.11386 19.6842 6.25681 19.6448 6.43234C18.8884 9.79769 16.2336 11.8772 12.5433 11.9947C12.4399 11.9981 12.335 11.9998 12.2303 11.9998V12ZM1.45752 3.47957C3.14125 8.7151 8.36788 11.398 12.5211 11.2658C15.918 11.1576 18.2619 9.33626 18.951 6.26879C19.0143 5.98742 19.1211 5.74773 19.268 5.5564C19.6719 5.0315 20.3439 4.79827 20.9811 4.9623C21.6277 5.12872 22.0863 5.64883 22.2082 6.35356C22.7104 9.6248 24.7072 11.3436 27.8338 11.2021C28.2989 11.181 28.7175 10.904 28.9261 10.4794C29.921 8.45385 30.2442 5.17566 29.6617 3.01646C29.3692 1.93195 28.4332 1.14341 27.3325 1.05457C16.5333 0.181026 6.90395 1.08714 1.45752 3.47957Z" fill="#212020"/>
<path d="M27.1372 9.51186C26.8863 9.51186 26.6224 9.47139 26.3484 9.38997C25.7796 9.22091 25.2355 8.86915 24.7749 8.37251C23.6896 7.20275 23.1673 5.6331 23.3416 4.06632C23.4018 3.52538 23.794 3.0831 24.3175 2.96553C26.1764 2.54815 27.5915 2.68105 28.6432 3.37189C29.2638 3.77969 29.6338 4.49328 29.6329 5.28062C29.6308 7.14576 29.1914 8.46877 28.3622 9.10645C28.012 9.37584 27.5969 9.51186 27.1372 9.51186ZM24.4443 3.55939C24.1687 3.62141 23.9624 3.85272 23.9309 4.13505C23.7765 5.52247 24.2407 6.91421 25.2047 7.95322C25.5932 8.37179 26.0459 8.66656 26.5137 8.80569C27.1127 8.98385 27.6144 8.92111 28.0064 8.61987C28.671 8.10863 29.0382 6.92235 29.04 5.27966C29.0407 4.70951 28.766 4.17456 28.3234 3.88362C27.411 3.28425 26.1423 3.17793 24.4446 3.55915L24.4443 3.55939Z" fill="#212020"/>
<path d="M12.284 9.42689C11.1494 9.42689 9.99246 9.08877 8.98264 8.41996C8.30733 7.97265 7.77497 7.2878 7.48391 6.49184C7.39865 6.25861 7.32764 6.02274 7.27228 5.79047C7.03075 4.77396 7.57034 3.74357 8.52737 3.39324C10.5711 2.64541 13.4424 2.456 16.406 2.8741C16.9467 2.95048 17.3611 3.41551 17.391 3.98016C17.4996 6.01316 16.6361 7.73032 15.0215 8.69103C14.1943 9.18336 13.2471 9.42713 12.284 9.42713V9.42689ZM8.72686 3.96579C8.05692 4.211 7.67943 4.93344 7.84878 5.64631C7.89831 5.85512 7.96254 6.06776 8.0394 6.27824C8.28607 6.95304 8.73527 7.53229 9.30453 7.90896C10.9862 9.02268 13.1135 9.12325 14.7236 8.1647C16.1385 7.32276 16.8946 5.80962 16.7989 4.01296C16.7842 3.73854 16.5849 3.51273 16.3249 3.4761C13.4536 3.07093 10.6839 3.24933 8.72686 3.96555V3.96579Z" fill="#212020"/>
<g opacity="0.3">
<path d="M19.3412 6.18918C19.3242 6.24186 19.3095 6.29598 19.2975 6.35033C17.3849 14.8633 3.70877 12.5506 1.02246 3.27688C3.14394 2.29725 5.86973 1.57456 8.98912 1.09277C8.8242 1.24172 8.65905 1.39042 8.49414 1.53793L8.69736 1.56762C7.8326 2.03457 6.90338 2.57311 6.5364 3.50149C6.21288 4.31757 6.40699 5.24858 6.68567 6.08357C7.05007 7.17958 7.58336 8.26624 8.47709 8.97408C9.78123 10.0066 11.574 10.0378 13.2176 9.91731C14.0256 9.85649 14.8427 9.76837 15.6002 9.47216C17.2793 8.81724 18.4449 7.23657 19.2779 5.60466C19.3017 5.79814 19.3242 5.99306 19.3412 6.18918Z" fill="#212020"/>
</g>
<g opacity="0.3">
<path d="M29.492 10.0826C29.4142 10.2775 29.331 10.4655 29.2439 10.6441C28.976 11.1882 28.4427 11.5399 27.8487 11.567C24.6157 11.7145 22.4034 9.97699 21.8568 6.41791C21.697 5.4936 20.8668 5.11622 20.1777 5.33676H20.1763C20.0535 5.33939 19.9322 5.36525 19.8133 5.422C19.8596 5.29485 19.9058 5.1677 19.9518 5.03911L19.6152 5.4505C19.8701 4.72662 20.8297 4.47758 21.5162 4.79007C22.2027 5.104 22.641 5.80634 22.9259 6.51944C23.2112 7.23136 23.384 7.99307 23.7496 8.66571C24.5008 10.0529 26.0874 10.9135 27.6279 10.7727C28.2946 10.7119 28.936 10.4643 29.4917 10.0826H29.492Z" fill="#212020"/>
</g>
</g>
<defs>
<clipPath id="clip0_559_2426">
<rect width="30" height="12" fill="white" transform="translate(0.666016)"/>
</clipPath>
</defs>
</svg>
