<svg width="75" height="25" viewBox="0 0 75 25" fill="none" xmlns="http://www.w3.org/2000/svg">
<path style="mix-blend-mode:screen" d="M37.167 25C57.6015 25 74.167 19.4036 74.167 12.5C74.167 5.59644 57.6015 0 37.167 0C16.7325 0 0.166992 5.59644 0.166992 12.5C0.166992 19.4036 16.7325 25 37.167 25Z" fill="url(#paint0_radial_544_3976)"/>
<path d="M36.8569 21.1904C52.0196 21.1904 64.3114 17.4048 64.3114 12.7351C64.3114 8.06536 52.0196 4.27979 36.8569 4.27979C21.6942 4.27979 9.40234 8.06536 9.40234 12.7351C9.40234 17.4048 21.6942 21.1904 36.8569 21.1904Z" fill="url(#paint1_radial_544_3976)"/>
<path style="mix-blend-mode:screen" d="M61.7121 14.3986C64.7944 10.0219 56.1783 5.67628 42.4674 4.69235C28.7565 3.70843 15.1429 6.45882 12.0606 10.8355C8.97822 15.2122 17.5944 19.5579 31.3052 20.5418C45.0161 21.5257 58.6297 18.7753 61.7121 14.3986Z" fill="url(#paint2_radial_544_3976)"/>
<g style="mix-blend-mode:multiply" opacity="0.1">
<path d="M17.495 13.3741C26.3649 12.7665 20.2482 15.9896 20.2482 15.9896L29.8007 14.8765C32.6579 14.5437 35.5919 14.2703 38.5802 14.0673C43.0015 13.7663 49.4076 13.2388 48.083 12.7789C46.0983 12.0899 47.0387 11.0942 36.053 11.7557C25.0674 12.4171 36.4599 9.64704 41.2023 9.64704C42.4997 9.64704 32.1109 10.4107 34.5521 11.1508C36.9934 11.8896 46.9392 9.5269 50.687 10.3996C50.687 10.3996 45.488 10.5267 46.3289 11.5071C47.1698 12.4876 53.6707 12.9502 58.7928 11.0611C63.9149 9.172 45.9491 9.64842 45.9491 9.64842C45.9491 9.64842 54.819 7.29535 59.1771 8.88754C60.9447 9.5338 62.2196 9.75337 63.1102 9.78789C61.9393 8.8392 60.2169 7.95542 58.0107 7.18349C55.1807 6.76369 51.5911 6.77474 47.441 7.95542C36.9256 10.9479 25.0719 9.66775 31.7266 8.07694C38.3767 6.48613 44.2674 6.93217 44.2674 6.93217C44.2674 6.93217 33.0286 7.73309 34.6335 8.46498C36.2384 9.19548 51.6815 7.62953 49.7738 6.29004C47.8614 4.95056 31.1931 6.29004 31.1931 6.29004C31.1931 6.29004 38.1191 6.08567 35.384 6.7775C32.6488 7.46796 20.2618 8.38903 22.0204 9.58766C23.779 10.7849 34.2447 10.0724 34.2447 10.0724C34.2447 10.0724 23.9779 13.1449 35.384 12.1865C46.7945 11.2296 48.2457 12.4669 45.4925 12.8867C42.7393 13.3064 17.278 15.8377 24.543 11.7584C24.543 11.7584 11.7671 14.2068 16.0122 11.1536C20.2618 8.09903 13.8377 9.87212 13.8377 9.87212C13.8377 9.87212 19.5113 5.9241 22.2464 7.11859C24.9815 8.31308 17.8883 8.65002 17.8883 8.65002C17.8883 8.65002 24.005 8.87096 28.6705 6.48751C31.5819 5.00027 27.9065 4.97818 24.7374 5.17289C18.9643 6.047 14.1496 7.53424 11.4597 9.49237C10.2798 10.3485 9.60166 11.2296 9.37109 12.1078C11.3377 11.6052 13.919 10.8788 13.919 10.8788C13.919 10.8788 8.64324 13.9845 17.5131 13.3783L17.495 13.3741Z" fill="#FF1E00"/>
</g>
<path style="mix-blend-mode:screen" d="M62.3665 13.292C65.4465 8.91516 56.8277 4.56999 43.1159 3.58683C29.4041 2.60367 15.7917 5.35482 12.7117 9.7317C9.63162 14.1086 18.2504 18.4537 31.9622 19.4369C45.674 20.4201 59.2864 17.6689 62.3665 13.292Z" fill="url(#paint3_radial_544_3976)"/>
<path style="mix-blend-mode:screen" opacity="0.38" d="M62.0284 13.5469C56.5676 15.5479 44.3132 8.92504 27.4927 12.4671C10.6722 16.0105 7.60048 10.0035 17.9225 7.13124C25.9891 4.88726 33.613 3.93995 46.7761 5.2891C59.9391 6.63687 65.6628 12.2144 62.0284 13.5469Z" fill="url(#paint4_linear_544_3976)"/>
<path style="mix-blend-mode:screen" opacity="0.38" d="M11.6236 11.6009C17.2681 9.64556 28.9263 16.3651 46.0721 12.9611C63.2225 9.55718 65.747 15.5862 55.1595 18.3729C46.8843 20.5506 39.1722 21.4344 26.1294 19.9803C13.0866 18.5248 7.86675 12.9045 11.6236 11.6009Z" fill="url(#paint5_linear_544_3976)"/>
<g style="mix-blend-mode:multiply" opacity="0.1">
<path d="M56.2558 12.0803C47.3859 12.6879 53.5026 9.46484 53.5026 9.46484L43.9501 10.5779C41.0929 10.9107 38.1589 11.1841 35.1707 11.3871C30.7493 11.6881 24.3433 12.2156 25.6679 12.6755C27.6525 13.3645 26.7122 14.3602 37.6978 13.6987C48.6834 13.0373 37.2909 15.8074 32.5486 15.8074C31.2511 15.8074 41.64 15.0437 39.1987 14.3036C36.7575 13.5648 26.8116 15.9275 23.0639 15.0548C23.0639 15.0548 28.2628 14.9277 27.4219 13.9473C26.5811 12.9668 20.0801 12.5042 14.958 14.3933C9.83592 16.2824 27.8017 15.806 27.8017 15.806C27.8017 15.806 18.9318 18.1591 14.5737 16.5669C12.8061 15.9206 11.5312 15.701 10.6406 15.6665C11.8115 16.6152 13.534 17.499 15.7401 18.2709C18.5702 18.6907 22.1597 18.6797 26.3098 17.499C36.8253 14.5065 48.6789 15.7867 42.0242 17.3775C35.3741 18.9683 29.4834 18.5222 29.4834 18.5222C29.4834 18.5222 40.7222 17.7213 39.1173 16.9894C37.5124 16.2589 22.0693 17.8249 23.9771 19.1644C25.8894 20.5038 42.5577 19.1644 42.5577 19.1644C42.5577 19.1644 35.6318 19.3687 38.3669 18.6769C41.102 17.9864 53.4891 17.0654 51.7305 15.8667C49.9719 14.6695 39.5061 15.382 39.5061 15.382C39.5061 15.382 49.7729 12.3095 38.3669 13.2679C26.9563 14.2248 25.5051 12.9875 28.2583 12.5677C31.0115 12.148 56.4728 9.61674 49.2078 13.696C49.2078 13.696 61.9837 11.2476 57.7386 14.3008C53.4936 17.354 59.9132 15.5823 59.9132 15.5823C59.9132 15.5823 54.2395 19.5303 51.5044 18.3358C48.7693 17.1413 55.8625 16.8044 55.8625 16.8044C55.8625 16.8044 49.7458 16.5834 45.0803 18.9669C42.1689 20.4541 45.8443 20.4762 49.0134 20.2815C54.7865 19.4074 59.6012 17.9202 62.2911 15.962C63.4665 15.1059 64.1492 14.2248 64.3797 13.3466C62.4132 13.8492 59.8318 14.5756 59.8318 14.5756C59.8318 14.5756 65.1076 11.4699 56.2377 12.0761L56.2558 12.0803Z" fill="#FF1E00"/>
</g>
<g opacity="0.71">
<path d="M19.0196 17.2146C14.506 17.6316 32.2041 18.9007 35.2687 18.4505C38.3569 18.0003 22.8205 16.8639 19.0196 17.2146Z" fill="#FF7900"/>
<path style="mix-blend-mode:screen" d="M34.7027 17.5223C38.8539 18.645 38.8105 19.7373 34.594 19.9637C30.3775 20.1888 23.6073 19.4625 19.4452 18.3398C15.2939 17.2171 15.3374 16.1248 19.5538 15.8983C23.7703 15.6732 30.5405 16.3996 34.7027 17.5223Z" fill="url(#paint6_radial_544_3976)"/>
</g>
<g opacity="0.71">
<path d="M18.094 14.9208C7.67257 15.0989 20.1627 17.4741 28.9057 17.1758C37.6488 16.8775 26.8761 14.7703 18.094 14.9208Z" fill="#FF7900"/>
<path style="mix-blend-mode:screen" d="M27.5317 19.3036C32.6513 19.0428 34.8461 17.434 32.4339 15.7103C30.0216 13.9865 23.9159 12.8006 18.7962 13.0614C13.6766 13.3222 11.4819 14.9311 13.8941 16.6548C16.3063 18.3785 22.4121 19.5645 27.5317 19.3036Z" fill="url(#paint7_radial_544_3976)"/>
</g>
<path d="M22.5505 12.2841H26.3165V13.8381H22.5505V12.2841ZM31.3625 9.44211C31.1385 9.71277 30.9052 10.0021 30.6625 10.3101C30.4292 10.6181 30.2005 10.9401 29.9765 11.2761C29.7525 11.6121 29.5379 11.9574 29.3325 12.3121C29.1272 12.6574 28.9405 13.0028 28.7725 13.3481H31.3625V9.44211ZM33.0145 7.35611V13.3481H34.1065V14.7341H33.0145V17.0581H31.3625V14.7341H27.1065V13.5301C27.2932 13.1194 27.5405 12.6481 27.8485 12.1161C28.1659 11.5841 28.5159 11.0381 28.8985 10.4781C29.2812 9.91811 29.6872 9.36744 30.1165 8.82611C30.5459 8.28477 30.9752 7.79477 31.4045 7.35611H33.0145ZM41.3356 9.87611C41.3356 10.2121 41.2656 10.5434 41.1256 10.8701C40.9856 11.1874 40.8036 11.5001 40.5796 11.8081C40.3649 12.1068 40.1176 12.4008 39.8376 12.6901C39.5576 12.9701 39.2776 13.2454 38.9976 13.5161C38.8482 13.6561 38.6802 13.8241 38.4936 14.0201C38.3069 14.2161 38.1296 14.4121 37.9616 14.6081C37.7936 14.8041 37.6489 14.9954 37.5276 15.1821C37.4062 15.3594 37.3409 15.5088 37.3316 15.6301H41.6436V17.0581H35.4696C35.4602 16.9834 35.4556 16.8948 35.4556 16.7921C35.4556 16.6801 35.4556 16.5961 35.4556 16.5401C35.4556 16.0921 35.5256 15.6814 35.6656 15.3081C35.8149 14.9254 36.0062 14.5708 36.2396 14.2441C36.4729 13.9174 36.7342 13.6094 37.0236 13.3201C37.3129 13.0308 37.6022 12.7461 37.8916 12.4661C38.1156 12.2514 38.3302 12.0414 38.5356 11.8361C38.7409 11.6308 38.9182 11.4301 39.0676 11.2341C39.2262 11.0288 39.3522 10.8234 39.4456 10.6181C39.5389 10.4034 39.5856 10.1841 39.5856 9.96011C39.5856 9.47477 39.4456 9.12944 39.1656 8.92411C38.8856 8.71877 38.5449 8.6161 38.1436 8.6161C37.8822 8.6161 37.6396 8.65344 37.4156 8.72811C37.1916 8.80277 36.9909 8.89144 36.8136 8.9941C36.6456 9.09677 36.4962 9.20411 36.3656 9.31611C36.2349 9.41877 36.1369 9.50277 36.0716 9.56811L35.2316 8.37811C35.6236 8.00477 36.0809 7.70611 36.6036 7.48211C37.1356 7.24877 37.7049 7.1321 38.3116 7.1321C39.3476 7.1321 40.1082 7.37944 40.5936 7.87411C41.0882 8.35944 41.3356 9.02677 41.3356 9.87611ZM47.9206 9.7921C47.9206 10.6414 47.7013 11.2948 47.2626 11.7521C46.8333 12.2094 46.2686 12.4381 45.5686 12.4381C45.2233 12.4381 44.9059 12.3821 44.6166 12.2701C44.3273 12.1488 44.0799 11.9761 43.8746 11.7521C43.6693 11.5281 43.5059 11.2528 43.3846 10.9261C43.2726 10.5901 43.2166 10.2121 43.2166 9.7921C43.2166 8.93344 43.4313 8.28011 43.8606 7.8321C44.2993 7.37477 44.8686 7.14611 45.5686 7.14611C46.2686 7.14611 46.8333 7.37477 47.2626 7.8321C47.7013 8.28011 47.9206 8.93344 47.9206 9.7921ZM46.5906 9.7921C46.5906 9.29744 46.4973 8.92877 46.3106 8.6861C46.1333 8.43411 45.8859 8.30811 45.5686 8.30811C45.2513 8.30811 45.0039 8.43411 44.8266 8.6861C44.6493 8.92877 44.5606 9.29744 44.5606 9.7921C44.5606 10.2868 44.6493 10.6601 44.8266 10.9121C45.0039 11.1548 45.2513 11.2761 45.5686 11.2761C45.8859 11.2761 46.1333 11.1548 46.3106 10.9121C46.4973 10.6601 46.5906 10.2868 46.5906 9.7921ZM50.7626 7.35611H52.3726L46.8986 17.0581H45.2886L50.7626 7.35611ZM54.4586 14.6361C54.4586 15.4854 54.2393 16.1388 53.8006 16.5961C53.3713 17.0534 52.8066 17.2821 52.1066 17.2821C51.7613 17.2821 51.4439 17.2214 51.1546 17.1001C50.8653 16.9881 50.6179 16.8201 50.4126 16.5961C50.2073 16.3721 50.0439 16.0968 49.9226 15.7701C49.8106 15.4341 49.7546 15.0561 49.7546 14.6361C49.7546 13.7774 49.9693 13.1241 50.3986 12.6761C50.8373 12.2188 51.4066 11.9901 52.1066 11.9901C52.8066 11.9901 53.3713 12.2188 53.8006 12.6761C54.2393 13.1241 54.4586 13.7774 54.4586 14.6361ZM53.1286 14.6361C53.1286 14.1414 53.0353 13.7728 52.8486 13.5301C52.6713 13.2781 52.4239 13.1521 52.1066 13.1521C51.7893 13.1521 51.5419 13.2781 51.3646 13.5301C51.1873 13.7728 51.0986 14.1414 51.0986 14.6361C51.0986 15.1308 51.1873 15.5041 51.3646 15.7561C51.5419 15.9988 51.7893 16.1201 52.1066 16.1201C52.4239 16.1201 52.6713 15.9988 52.8486 15.7561C53.0353 15.5041 53.1286 15.1308 53.1286 14.6361Z" fill="#422B2B"/>
<defs>
<radialGradient id="paint0_radial_544_3976" cx="0" cy="0" r="1" gradientUnits="userSpaceOnUse" gradientTransform="translate(37.167 12.5) scale(37 12.5)">
<stop stop-color="#FF0000"/>
<stop offset="0.09" stop-color="#F50000"/>
<stop offset="0.23" stop-color="#DA0000"/>
<stop offset="0.42" stop-color="#AE0000"/>
<stop offset="0.64" stop-color="#710000"/>
<stop offset="0.89" stop-color="#250000"/>
<stop offset="1"/>
</radialGradient>
<radialGradient id="paint1_radial_544_3976" cx="0" cy="0" r="1" gradientUnits="userSpaceOnUse" gradientTransform="translate(36.8569 12.7351) scale(27.4545 8.45531)">
<stop offset="0.58" stop-color="#FF7D00"/>
<stop offset="0.73" stop-color="#FF5700"/>
<stop offset="0.88" stop-color="#FF2900"/>
<stop offset="1" stop-color="#FF0000"/>
</radialGradient>
<radialGradient id="paint2_radial_544_3976" cx="0" cy="0" r="1" gradientUnits="userSpaceOnUse" gradientTransform="translate(36.8855 12.6177) scale(25.4454 8.12252)">
<stop stop-color="#FF00FF"/>
<stop offset="0.1" stop-color="#D000D0"/>
<stop offset="0.23" stop-color="#990099"/>
<stop offset="0.37" stop-color="#6A006A"/>
<stop offset="0.5" stop-color="#440044"/>
<stop offset="0.63" stop-color="#260026"/>
<stop offset="0.76" stop-color="#110011"/>
<stop offset="0.88" stop-color="#040004"/>
<stop offset="1"/>
</radialGradient>
<radialGradient id="paint3_radial_544_3976" cx="0" cy="0" r="1" gradientUnits="userSpaceOnUse" gradientTransform="translate(37.536 11.5131) scale(25.4461 8.12252)">
<stop stop-color="#FFFF00"/>
<stop offset="0.1" stop-color="#D0D000"/>
<stop offset="0.23" stop-color="#999900"/>
<stop offset="0.37" stop-color="#6A6A00"/>
<stop offset="0.5" stop-color="#444400"/>
<stop offset="0.63" stop-color="#262600"/>
<stop offset="0.76" stop-color="#111100"/>
<stop offset="0.88" stop-color="#040400"/>
<stop offset="1"/>
</radialGradient>
<linearGradient id="paint4_linear_544_3976" x1="55.9954" y1="7.0689" x2="46.6514" y2="27.7565" gradientUnits="userSpaceOnUse">
<stop stop-color="#FFFF00"/>
<stop offset="0.1" stop-color="#D0D000"/>
<stop offset="0.23" stop-color="#999900"/>
<stop offset="0.37" stop-color="#6A6A00"/>
<stop offset="0.5" stop-color="#444400"/>
<stop offset="0.63" stop-color="#262600"/>
<stop offset="0.76" stop-color="#111100"/>
<stop offset="0.88" stop-color="#040400"/>
<stop offset="1"/>
</linearGradient>
<linearGradient id="paint5_linear_544_3976" x1="23.3229" y1="19.6022" x2="26.1252" y2="5.71578" gradientUnits="userSpaceOnUse">
<stop stop-color="#FF00FF"/>
<stop offset="0.1" stop-color="#D000D0"/>
<stop offset="0.23" stop-color="#990099"/>
<stop offset="0.37" stop-color="#6A006A"/>
<stop offset="0.5" stop-color="#440044"/>
<stop offset="0.63" stop-color="#260026"/>
<stop offset="0.76" stop-color="#110011"/>
<stop offset="0.88" stop-color="#040004"/>
<stop offset="1"/>
</linearGradient>
<radialGradient id="paint6_radial_544_3976" cx="0" cy="0" r="1" gradientUnits="userSpaceOnUse" gradientTransform="translate(28.5378 17.8455) rotate(-3.06805) scale(7.59265 2.4364)">
<stop stop-color="#FFC700"/>
<stop offset="0.1" stop-color="#D0A200"/>
<stop offset="0.23" stop-color="#997800"/>
<stop offset="0.37" stop-color="#6A5300"/>
<stop offset="0.5" stop-color="#443500"/>
<stop offset="0.63" stop-color="#261D00"/>
<stop offset="0.76" stop-color="#110D00"/>
<stop offset="0.88" stop-color="#040300"/>
<stop offset="1"/>
</radialGradient>
<radialGradient id="paint7_radial_544_3976" cx="0" cy="0" r="1" gradientUnits="userSpaceOnUse" gradientTransform="translate(-51.5351 12.1556) rotate(3.01676) scale(10.211 3.03493)">
<stop stop-color="#FFC700"/>
<stop offset="0.1" stop-color="#D0A200"/>
<stop offset="0.23" stop-color="#997800"/>
<stop offset="0.37" stop-color="#6A5300"/>
<stop offset="0.5" stop-color="#443500"/>
<stop offset="0.63" stop-color="#261D00"/>
<stop offset="0.76" stop-color="#110D00"/>
<stop offset="0.88" stop-color="#040300"/>
<stop offset="1"/>
</radialGradient>
</defs>
</svg>
