<svg width="75" height="25" viewBox="0 0 75 25" fill="none" xmlns="http://www.w3.org/2000/svg">
<path style="mix-blend-mode:screen" d="M37.833 25C58.2675 25 74.833 19.4036 74.833 12.5C74.833 5.59644 58.2675 0 37.833 0C17.3985 0 0.833008 5.59644 0.833008 12.5C0.833008 19.4036 17.3985 25 37.833 25Z" fill="url(#paint0_radial_544_3916)"/>
<path d="M37.5229 21.1904C52.6856 21.1904 64.9774 17.4048 64.9774 12.7351C64.9774 8.06536 52.6856 4.27979 37.5229 4.27979C22.3602 4.27979 10.0684 8.06536 10.0684 12.7351C10.0684 17.4048 22.3602 21.1904 37.5229 21.1904Z" fill="url(#paint1_radial_544_3916)"/>
<path style="mix-blend-mode:screen" d="M62.3781 14.3986C65.4604 10.0219 56.8443 5.67628 43.1334 4.69235C29.4225 3.70843 15.8089 6.45882 12.7266 10.8355C9.64424 15.2122 18.2604 19.5579 31.9713 20.5418C45.6821 21.5257 59.2958 18.7753 62.3781 14.3986Z" fill="url(#paint2_radial_544_3916)"/>
<g style="mix-blend-mode:multiply" opacity="0.1">
<path d="M18.161 13.3741C27.0309 12.7665 20.9142 15.9896 20.9142 15.9896L30.4667 14.8765C33.3239 14.5437 36.2579 14.2703 39.2462 14.0673C43.6676 13.7663 50.0736 13.2388 48.749 12.7789C46.7643 12.0899 47.7047 11.0942 36.719 11.7557C25.7334 12.4171 37.1259 9.64704 41.8683 9.64704C43.1658 9.64704 32.7769 10.4107 35.2181 11.1508C37.6594 11.8896 47.6052 9.5269 51.353 10.3996C51.353 10.3996 46.154 10.5267 46.9949 11.5071C47.8358 12.4876 54.3367 12.9502 59.4588 11.0611C64.5809 9.172 46.6151 9.64842 46.6151 9.64842C46.6151 9.64842 55.485 7.29535 59.8431 8.88754C61.6107 9.5338 62.8856 9.75337 63.7762 9.78789C62.6053 8.8392 60.8829 7.95542 58.6767 7.18349C55.8467 6.76369 52.2571 6.77474 48.107 7.95542C37.5916 10.9479 25.738 9.66775 32.3926 8.07694C39.0428 6.48613 44.9334 6.93217 44.9334 6.93217C44.9334 6.93217 33.6946 7.73309 35.2995 8.46498C36.9044 9.19548 52.3476 7.62953 50.4398 6.29004C48.5275 4.95056 31.8592 6.29004 31.8592 6.29004C31.8592 6.29004 38.7851 6.08567 36.05 6.7775C33.3149 7.46796 20.9278 8.38903 22.6864 9.58766C24.445 10.7849 34.9107 10.0724 34.9107 10.0724C34.9107 10.0724 24.6439 13.1449 36.05 12.1865C47.4605 11.2296 48.9117 12.4669 46.1585 12.8867C43.4054 13.3064 17.944 15.8377 25.209 11.7584C25.209 11.7584 12.4331 14.2068 16.6782 11.1536C20.9278 8.09903 14.5037 9.87212 14.5037 9.87212C14.5037 9.87212 20.1773 5.9241 22.9124 7.11859C25.6475 8.31308 18.5544 8.65002 18.5544 8.65002C18.5544 8.65002 24.671 8.87096 29.3365 6.48751C32.2479 5.00027 28.5725 4.97818 25.4034 5.17289C19.6303 6.047 14.8156 7.53424 12.1257 9.49237C10.9458 10.3485 10.2677 11.2296 10.0371 12.1078C12.0037 11.6052 14.5851 10.8788 14.5851 10.8788C14.5851 10.8788 9.30925 13.9845 18.1791 13.3783L18.161 13.3741Z" fill="#FF1E00"/>
</g>
<path style="mix-blend-mode:screen" d="M63.0325 13.292C66.1125 8.91516 57.4938 4.56999 43.782 3.58683C30.0702 2.60367 16.4577 5.35482 13.3777 9.7317C10.2976 14.1086 18.9164 18.4537 32.6282 19.4369C46.34 20.4201 59.9525 17.6689 63.0325 13.292Z" fill="url(#paint3_radial_544_3916)"/>
<path style="mix-blend-mode:screen" opacity="0.38" d="M62.6944 13.5469C57.2337 15.5479 44.9792 8.92504 28.1587 12.4671C11.3382 16.0105 8.26649 10.0035 18.5885 7.13124C26.6551 4.88726 34.279 3.93995 47.4421 5.2891C60.6051 6.63687 66.3288 12.2144 62.6944 13.5469Z" fill="url(#paint4_linear_544_3916)"/>
<path style="mix-blend-mode:screen" opacity="0.38" d="M12.2896 11.6009C17.9341 9.64556 29.5923 16.3651 46.7381 12.9611C63.8885 9.55718 66.413 15.5862 55.8256 18.3729C47.5504 20.5506 39.8382 21.4344 26.7954 19.9803C13.7526 18.5248 8.53276 12.9045 12.2896 11.6009Z" fill="url(#paint5_linear_544_3916)"/>
<g style="mix-blend-mode:multiply" opacity="0.1">
<path d="M56.883 4.88597C48.0207 6.02105 54.1321 0 54.1321 0L44.5878 2.07925C41.733 2.70096 38.8015 3.21174 35.8158 3.59096C31.3982 4.15334 24.9976 5.13879 26.3211 5.99783C28.304 7.28511 27.3645 9.14508 38.3408 7.90939C49.317 6.67371 37.9342 11.8486 33.1959 11.8486C31.8996 11.8486 42.2796 10.422 39.8404 9.03931C37.4012 7.65916 27.4639 12.073 23.7193 10.4427C23.7193 10.4427 28.9138 10.2053 28.0737 8.37374C27.2335 6.54215 20.7381 5.67794 15.6204 9.20699C10.5026 12.736 28.4531 11.846 28.4531 11.846C28.4531 11.846 19.5908 16.2419 15.2364 13.2675C13.4703 12.0602 12.1965 11.65 11.3066 11.5855C12.4765 13.3577 14.1975 15.0088 16.4018 16.4508C19.2294 17.2351 22.8159 17.2144 26.9625 15.0088C37.469 9.41853 49.3125 11.8099 42.6635 14.7817C36.019 17.7536 30.1334 16.9203 30.1334 16.9203C30.1334 16.9203 41.3626 15.4241 39.7591 14.0568C38.1556 12.6922 22.7256 15.6176 24.6317 18.1199C26.5424 20.6222 43.1965 18.1199 43.1965 18.1199C43.1965 18.1199 36.2765 18.5017 39.0093 17.2093C41.7421 15.9194 54.1186 14.1987 52.3615 11.9595C50.6044 9.72293 40.1476 11.0541 40.1476 11.0541C40.1476 11.0541 50.4056 5.31421 39.0093 7.10453C27.6084 8.89227 26.1585 6.58084 28.9093 5.79661C31.6602 5.01238 57.0998 0.283768 49.841 7.90424C49.841 7.90424 62.606 3.33041 58.3646 9.03415C54.1231 14.7379 60.5372 11.4281 60.5372 11.4281C60.5372 11.4281 54.8684 18.8035 52.1356 16.5721C49.4029 14.3406 56.49 13.7112 56.49 13.7112C56.49 13.7112 50.3785 13.2984 45.717 17.751C42.8081 20.5293 46.4804 20.5706 49.6468 20.2069C55.415 18.5739 60.2255 15.7956 62.9132 12.1375C64.0876 10.5381 64.7696 8.89227 65 7.25157C63.0351 8.19058 60.4559 9.54751 60.4559 9.54751C60.4559 9.54751 65.7272 3.74574 56.8649 4.87823L56.883 4.88597Z" fill="#FF1E00"/>
</g>
<g opacity="0.71">
<path d="M19.6856 17.2146C15.172 17.6316 32.8702 18.9007 35.9347 18.4505C39.0229 18.0003 23.4865 16.8639 19.6856 17.2146Z" fill="#FF7900"/>
<path style="mix-blend-mode:screen" d="M35.3687 17.5223C39.52 18.645 39.4765 19.7373 35.26 19.9637C31.0436 20.1888 24.2733 19.4625 20.1112 18.3398C15.9599 17.2171 16.0034 16.1248 20.2198 15.8983C24.4363 15.6732 31.2066 16.3996 35.3687 17.5223Z" fill="url(#paint6_radial_544_3916)"/>
</g>
<g opacity="0.71">
<path d="M18.76 14.9208C8.33859 15.0989 20.8287 17.4741 29.5718 17.1758C38.3148 16.8775 27.5421 14.7703 18.76 14.9208Z" fill="#FF7900"/>
<path style="mix-blend-mode:screen" d="M28.1978 19.3036C33.3174 19.0428 35.5121 17.434 33.0999 15.7103C30.6876 13.9865 24.5819 12.8006 19.4623 13.0614C14.3426 13.3222 12.1479 14.9311 14.5601 16.6548C16.9724 18.3785 23.0781 19.5645 28.1978 19.3036Z" fill="url(#paint7_radial_544_3916)"/>
</g>
<path d="M33.9805 17.0581C33.7098 16.5074 33.3691 15.9008 32.9585 15.2381C32.5478 14.5754 32.1185 13.9361 31.6705 13.3201C31.4838 13.5628 31.2785 13.8521 31.0545 14.1881C30.8398 14.5241 30.6205 14.8694 30.3965 15.2241C30.1818 15.5694 29.9811 15.9054 29.7945 16.2321C29.6078 16.5588 29.4585 16.8341 29.3465 17.0581H27.3445C27.7645 16.2648 28.2498 15.4528 28.8005 14.6221C29.3511 13.7821 29.9485 12.9048 30.5925 11.9901L27.4845 7.35611H29.5845L31.7265 10.6741L33.8405 7.35611H35.8565L32.7905 11.9761C33.4998 12.9374 34.1251 13.8474 34.6665 14.7061C35.2171 15.5648 35.6791 16.3488 36.0525 17.0581H33.9805ZM43.7556 9.73611V17.0581H42.0756C42.0756 16.5261 42.0756 15.9988 42.0756 15.4761C42.085 14.9534 42.0896 14.4681 42.0896 14.0201C42.099 13.5721 42.1036 13.1848 42.1036 12.8581C42.113 12.5221 42.1176 12.2748 42.1176 12.1161C41.8376 12.4801 41.5483 12.8814 41.2496 13.3201C40.951 13.7588 40.6523 14.1974 40.3536 14.6361C40.0643 15.0748 39.789 15.5041 39.5276 15.9241C39.2663 16.3441 39.0376 16.7221 38.8416 17.0581H37.3436V9.73611H39.0096C39.0096 10.2774 39.005 10.7954 38.9956 11.2901C38.9956 11.7754 38.9956 12.2188 38.9956 12.6201C38.9956 13.0214 38.991 13.3714 38.9816 13.6701C38.9816 13.9688 38.9816 14.1974 38.9816 14.3561C39.243 13.9548 39.5136 13.5441 39.7936 13.1241C40.0736 12.6948 40.3536 12.2794 40.6336 11.8781C40.923 11.4674 41.2076 11.0801 41.4876 10.7161C41.7676 10.3521 42.0383 10.0254 42.2996 9.73611H43.7556ZM51.4319 11.1501H49.0659V17.0581H47.3719V11.1501H45.0199V9.73611H51.4319V11.1501Z" fill="#422B2B"/>
<defs>
<radialGradient id="paint0_radial_544_3916" cx="0" cy="0" r="1" gradientUnits="userSpaceOnUse" gradientTransform="translate(37.833 12.5) scale(37 12.5)">
<stop stop-color="#FF0000"/>
<stop offset="0.09" stop-color="#F50000"/>
<stop offset="0.23" stop-color="#DA0000"/>
<stop offset="0.42" stop-color="#AE0000"/>
<stop offset="0.64" stop-color="#710000"/>
<stop offset="0.89" stop-color="#250000"/>
<stop offset="1"/>
</radialGradient>
<radialGradient id="paint1_radial_544_3916" cx="0" cy="0" r="1" gradientUnits="userSpaceOnUse" gradientTransform="translate(37.5229 12.7351) scale(27.4545 8.45531)">
<stop offset="0.58" stop-color="#FF7D00"/>
<stop offset="0.73" stop-color="#FF5700"/>
<stop offset="0.88" stop-color="#FF2900"/>
<stop offset="1" stop-color="#FF0000"/>
</radialGradient>
<radialGradient id="paint2_radial_544_3916" cx="0" cy="0" r="1" gradientUnits="userSpaceOnUse" gradientTransform="translate(37.5515 12.6177) scale(25.4454 8.12252)">
<stop stop-color="#FF00FF"/>
<stop offset="0.1" stop-color="#D000D0"/>
<stop offset="0.23" stop-color="#990099"/>
<stop offset="0.37" stop-color="#6A006A"/>
<stop offset="0.5" stop-color="#440044"/>
<stop offset="0.63" stop-color="#260026"/>
<stop offset="0.76" stop-color="#110011"/>
<stop offset="0.88" stop-color="#040004"/>
<stop offset="1"/>
</radialGradient>
<radialGradient id="paint3_radial_544_3916" cx="0" cy="0" r="1" gradientUnits="userSpaceOnUse" gradientTransform="translate(38.202 11.5131) scale(25.4461 8.12252)">
<stop stop-color="#FFFF00"/>
<stop offset="0.1" stop-color="#D0D000"/>
<stop offset="0.23" stop-color="#999900"/>
<stop offset="0.37" stop-color="#6A6A00"/>
<stop offset="0.5" stop-color="#444400"/>
<stop offset="0.63" stop-color="#262600"/>
<stop offset="0.76" stop-color="#111100"/>
<stop offset="0.88" stop-color="#040400"/>
<stop offset="1"/>
</radialGradient>
<linearGradient id="paint4_linear_544_3916" x1="56.6614" y1="7.0689" x2="47.3174" y2="27.7565" gradientUnits="userSpaceOnUse">
<stop stop-color="#FFFF00"/>
<stop offset="0.1" stop-color="#D0D000"/>
<stop offset="0.23" stop-color="#999900"/>
<stop offset="0.37" stop-color="#6A6A00"/>
<stop offset="0.5" stop-color="#444400"/>
<stop offset="0.63" stop-color="#262600"/>
<stop offset="0.76" stop-color="#111100"/>
<stop offset="0.88" stop-color="#040400"/>
<stop offset="1"/>
</linearGradient>
<linearGradient id="paint5_linear_544_3916" x1="23.9889" y1="19.6022" x2="26.7912" y2="5.71578" gradientUnits="userSpaceOnUse">
<stop stop-color="#FF00FF"/>
<stop offset="0.1" stop-color="#D000D0"/>
<stop offset="0.23" stop-color="#990099"/>
<stop offset="0.37" stop-color="#6A006A"/>
<stop offset="0.5" stop-color="#440044"/>
<stop offset="0.63" stop-color="#260026"/>
<stop offset="0.76" stop-color="#110011"/>
<stop offset="0.88" stop-color="#040004"/>
<stop offset="1"/>
</linearGradient>
<radialGradient id="paint6_radial_544_3916" cx="0" cy="0" r="1" gradientUnits="userSpaceOnUse" gradientTransform="translate(29.2038 17.8455) rotate(-3.06805) scale(7.59265 2.4364)">
<stop stop-color="#FFC700"/>
<stop offset="0.1" stop-color="#D0A200"/>
<stop offset="0.23" stop-color="#997800"/>
<stop offset="0.37" stop-color="#6A5300"/>
<stop offset="0.5" stop-color="#443500"/>
<stop offset="0.63" stop-color="#261D00"/>
<stop offset="0.76" stop-color="#110D00"/>
<stop offset="0.88" stop-color="#040300"/>
<stop offset="1"/>
</radialGradient>
<radialGradient id="paint7_radial_544_3916" cx="0" cy="0" r="1" gradientUnits="userSpaceOnUse" gradientTransform="translate(-50.8691 12.1556) rotate(3.01676) scale(10.211 3.03493)">
<stop stop-color="#FFC700"/>
<stop offset="0.1" stop-color="#D0A200"/>
<stop offset="0.23" stop-color="#997800"/>
<stop offset="0.37" stop-color="#6A5300"/>
<stop offset="0.5" stop-color="#443500"/>
<stop offset="0.63" stop-color="#261D00"/>
<stop offset="0.76" stop-color="#110D00"/>
<stop offset="0.88" stop-color="#040300"/>
<stop offset="1"/>
</radialGradient>
</defs>
</svg>
